{
	"asset":{
		"generator":"Khronos glTF Blender I/O v3.6.28",
		"version":"2.0"
	},
	"scene":0,
	"scenes":[
		{
			"name":"Scene",
			"nodes":[
				0,
				1,
				2,
				3,
				4,
				5,
				6
			]
		}
	],
	"nodes":[
		{
			"name":"Area",
			"rotation":[
				-0.4594288468360901,
				0,
				0,
				0.8882145881652832
			],
			"scale":[
				4.013941287994385,
				4.013940811157227,
				4.013940811157227
			],
			"translation":[
				0,
				2.0337393283843994,
				1.5534887313842773
			]
		},
		{
			"name":"Area.001",
			"rotation":[
				-0.1311236321926117,
				-0.045257557183504105,
				0.3231104016304016,
				0.9361400604248047
			],
			"scale":[
				4.013941287994385,
				4.013941287994385,
				4.013941287994385
			],
			"translation":[
				-1.11623215675354,
				0.09731686115264893,
				1.6097609996795654
			]
		},
		{
			"name":"Area.003",
			"rotation":[
				-0.35484185814857483,
				-0.5641868114471436,
				-0.2918255627155304,
				0.686016321182251
			],
			"scale":[
				4.013941287994385,
				4.013940811157227,
				4.013941287994385
			],
			"translation":[
				-4.718797206878662,
				2.0337393283843994,
				-2.092766761779785
			]
		},
		{
			"name":"Area.004",
			"rotation":[
				-0.7259588837623596,
				-0.21683400869369507,
				-0.597035825252533,
				0.2636568248271942
			],
			"scale":[
				4.013941287994385,
				4.013940811157227,
				4.013940811157227
			],
			"translation":[
				4.148446083068848,
				2.0337393283843994,
				-3.837522506713867
			]
		},
		{
			"name":"Area.002",
			"rotation":[
				-0.1311236321926117,
				-0.045257557183504105,
				0.3231104016304016,
				0.9361400604248047
			],
			"scale":[
				4.013941287994385,
				4.013941287994385,
				4.013941287994385
			],
			"translation":[
				1.117935061454773,
				0.6574208736419678,
				1.5534887313842773
			]
		},
		{
			"name":"Area.005",
			"rotation":[
				-0.7071068286895752,
				0,
				0,
				0.7071068286895752
			],
			"scale":[
				-5.337014198303223,
				-5.3370137214660645,
				-5.3370137214660645
			],
			"translation":[
				0,
				-1.8604366779327393,
				-2.294384241104126
			]
		},
		{
			"mesh":0,
			"name":"path1",
			"rotation":[
				0.7071068286895752,
				0,
				0,
				0.7071068286895752
			],
			"scale":[
				22.149505615234375,
				22.149505615234375,
				22.149505615234375
			]
		}
	],
	"materials": [
		{
			"doubleSided": true,
			"name": "Colors",
			"pbrMetallicRoughness": {
				"baseColorFactor": [
					1, 0.8, 0.08235, 1.0 
				]
			}
		}
	],
	"meshes":[
		{
			"name":"path1",
			"primitives":[
				{
					"attributes":{
						"POSITION":0,
						"NORMAL":1,
						"TEXCOORD_0":2
					},
					"indices":3,
					"material":0
				}
			]
		}
	],
	"accessors":[
		{
			"bufferView":0,
			"componentType":5126,
			"count":9447,
			"max":[
				0.08582402765750885,
				0.005499999970197678,
				0.03503228351473808
			],
			"min":[
				-0.08608286082744598,
				-0.005499999970197678,
				-0.026811622083187103
			],
			"type":"VEC3"
		},
		{
			"bufferView":1,
			"componentType":5126,
			"count":9447,
			"type":"VEC3"
		},
		{
			"bufferView":2,
			"componentType":5126,
			"count":9447,
			"type":"VEC2"
		},
		{
			"bufferView":3,
			"componentType":5123,
			"count":27204,
			"type":"SCALAR"
		}
	],
	"bufferViews":[
		{
			"buffer":0,
			"byteLength":113364,
			"byteOffset":0,
			"target":34962
		},
		{
			"buffer":0,
			"byteLength":113364,
			"byteOffset":113364,
			"target":34962
		},
		{
			"buffer":0,
			"byteLength":75576,
			"byteOffset":226728,
			"target":34962
		},
		{
			"buffer":0,
			"byteLength":54408,
			"byteOffset":302304,
			"target":34963
		}
	],
	"buffers":[
		{
			"byteLength":356712,
			"uri":"data:application/octet-stream;base64,"
		}
	]
}
